<svg id="Capa_1" enable-background="new 0 0 512 512" height="512" viewBox="0 0 512 512" width="512" xmlns="http://www.w3.org/2000/svg"><g><g><path d="m504.5 256c0 14.486-9.152 27.992-11.568 41.786-2.484 14.186 1.461 29.997-3.356 43.229-4.903 13.467-18.133 23.03-25.216 35.273-7.15 12.358-8.865 28.581-17.993 39.449-9.155 10.9-24.846 15.387-35.746 24.542-10.868 9.129-17.994 23.815-30.352 30.965-12.243 7.083-28.509 5.958-41.975 10.861-13.232 4.817-24.951 16.177-39.136 18.661-13.794 2.416-28.672-4.217-43.158-4.217s-29.364 6.633-43.158 4.217c-14.186-2.484-25.905-13.844-39.137-18.661-13.467-4.903-29.732-3.777-41.975-10.861-12.358-7.15-19.484-21.837-30.352-30.965-10.9-9.155-26.59-13.643-35.746-24.542-9.129-10.868-10.843-27.091-17.993-39.449-7.083-12.243-20.313-21.806-25.216-35.273-4.817-13.232-.872-29.043-3.356-43.228-2.415-13.795-11.567-27.301-11.567-41.787s9.152-27.992 11.568-41.786c2.484-14.186-1.461-29.997 3.356-43.229 4.903-13.467 18.133-23.03 25.216-35.273 7.15-12.358 8.865-28.581 17.993-39.449 9.155-10.9 24.846-15.387 35.746-24.542 10.868-9.129 17.994-23.815 30.352-30.965 12.243-7.083 28.508-5.958 41.975-10.861 13.232-4.817 24.951-16.177 39.136-18.661 13.794-2.416 28.672 4.217 43.158 4.217s29.364-6.633 43.158-4.217c14.186 2.484 25.905 13.844 39.137 18.661 13.467 4.903 29.732 3.778 41.975 10.861 12.358 7.15 19.484 21.837 30.352 30.965 10.9 9.155 26.59 13.643 35.746 24.542 9.129 10.868 10.843 27.091 17.993 39.449 7.083 12.243 20.313 21.806 25.216 35.273 4.817 13.232.871 29.043 3.356 43.228 2.415 13.795 11.567 27.301 11.567 41.787z" fill="#f1d59d"/></g><g><path d="m504.5 256c0-14.486-9.152-27.992-11.568-41.786-2.484-14.186 1.461-29.997-3.356-43.228-4.903-13.467-18.133-23.029-25.216-35.272-7.15-12.358-8.864-28.58-17.993-39.449-5.291-6.299-12.764-10.456-20.233-14.611 19.544 35.851 30.654 76.962 30.654 120.67 0 139.439-113.037 252.476-252.476 252.476-52.633 0-101.498-16.113-141.949-43.665.981 1.612 2.056 3.156 3.27 4.6 9.155 10.9 24.846 15.387 35.745 24.542 10.868 9.129 17.994 23.815 30.352 30.965 12.243 7.084 28.509 5.959 41.975 10.861 13.232 4.817 24.951 16.177 39.137 18.661 13.794 2.416 28.672-4.217 43.158-4.217s29.364 6.633 43.158 4.217c14.186-2.484 25.905-13.844 39.136-18.661 13.467-4.903 29.732-3.777 41.975-10.861 12.358-7.15 19.484-21.836 30.352-30.965 10.9-9.155 26.59-13.643 35.746-24.542 9.129-10.868 10.843-27.091 17.994-39.449 7.083-12.243 20.314-21.806 25.216-35.273 4.817-13.232.872-29.043 3.356-43.229 2.415-13.792 11.567-27.298 11.567-41.784z" fill="#efcb84"/></g><g><g><path d="m308.682 265.443c0 18.391-24.848 33.299-43.239 33.299s-33.299-14.908-33.299-33.299 14.908-43.239 33.299-43.239 43.239 24.849 43.239 43.239z" fill="#df75a5"/></g><g><path d="m294.713 237.707c-1.089 23.461-20.45 42.149-44.18 42.149-5.811 0-11.354-1.132-16.438-3.169 4.612 12.857 16.904 22.055 31.348 22.055 18.391 0 43.239-14.909 43.239-33.299 0-8.919-5.851-19.35-13.969-27.736z" fill="#dd5790"/></g></g><g><g><path d="m366.334 394.663c0 18.391-14.908 33.299-33.299 33.299s-43.239-14.908-43.239-33.299 24.848-43.239 43.239-43.239 33.299 24.848 33.299 43.239z" fill="#a2f4c1"/></g><g><path d="m354.918 363.947c.317 2.075.482 4.2.482 6.363 0 23.057-18.691 41.748-41.748 41.748-7.307 0-14.172-1.882-20.146-5.18 7.604 12.345 25.452 21.084 39.529 21.084 18.39 0 33.299-14.909 33.299-33.299 0-10.011-4.424-21.928-11.416-30.716z" fill="#86f1a7"/></g></g><g><g><path d="m237.114 137.217c0 18.391-14.908 33.299-33.299 33.299s-43.239-14.908-43.239-33.299 24.848-43.239 43.239-43.239 33.299 24.849 33.299 43.239z" fill="#ac80dd"/></g><g><path d="m227.098 108.344c-1.439 27.948-23.312 50.484-50.968 52.984 8.377 5.689 18.784 9.188 27.685 9.188 18.391 0 33.299-14.909 33.299-33.299 0-9.326-3.839-20.308-10.016-28.873z" fill="#9d66d5"/></g></g><g><g><path d="m148.648 313.155c0 18.391-14.908 33.299-33.299 33.299s-43.239-14.908-43.239-33.299 24.848-43.239 43.239-43.239 33.299 24.848 33.299 43.239z" fill="#ac80dd"/></g><g><path d="m138.499 284.102c.137 1.383.209 2.784.209 4.203 0 23.331-18.914 42.245-42.245 42.245-7.582 0-14.691-2.007-20.842-5.504 7.489 12.517 25.528 21.408 39.728 21.408 18.391 0 33.299-14.909 33.299-33.299 0-9.392-3.894-20.462-10.149-29.053z" fill="#9d66d5"/></g></g><g><g><path d="m420.01 173.001c0 18.391-14.908 33.299-33.299 33.299s-43.239-14.908-43.239-33.299 24.848-43.239 43.239-43.239 33.299 24.849 33.299 43.239z" fill="#e7a561"/></g><g><path d="m409.942 144.058c-1.729 25.33-22.809 45.344-48.578 45.344-4.288 0-8.445-.559-12.406-1.6 8.355 10.961 24.681 18.498 37.753 18.498 18.39 0 33.299-14.909 33.299-33.299 0-9.352-3.861-20.368-10.068-28.943z" fill="#e49542"/></g></g><g><path d="m316.182 265.443c0-10.582-6.325-23.225-16.919-33.819-10.595-10.595-23.237-16.92-33.819-16.92-22.6 0-40.799 27.758-40.799 50.739 0 22.496 18.302 40.799 40.799 40.799 22.981 0 50.738-18.199 50.738-40.799zm-76.538 0c0-15.274 12.755-35.739 25.799-35.739 14.362 0 35.738 21.377 35.738 35.739 0 13.044-20.464 25.799-35.738 25.799-14.225 0-25.799-11.573-25.799-25.799z"/><path d="m333.035 435.462c22.496 0 40.799-18.303 40.799-40.799 0-22.981-18.199-50.739-40.799-50.739-10.582 0-23.225 6.325-33.819 16.92s-16.92 23.237-16.92 33.819c0 22.6 27.758 40.799 50.739 40.799zm0-76.538c13.044 0 25.799 20.465 25.799 35.739 0 14.226-11.573 25.799-25.799 25.799-15.274 0-35.739-12.755-35.739-25.799 0-14.362 21.377-35.739 35.739-35.739z"/><path d="m244.614 137.217c0-22.981-18.199-50.739-40.799-50.739-10.582 0-23.225 6.325-33.819 16.92s-16.919 23.237-16.919 33.819c0 22.6 27.757 40.799 50.739 40.799 22.496 0 40.798-18.303 40.798-40.799zm-76.538 0c0-14.362 21.376-35.739 35.739-35.739 13.044 0 25.799 20.465 25.799 35.739 0 14.226-11.573 25.799-25.799 25.799-15.274 0-35.739-12.755-35.739-25.799z"/><path d="m64.61 313.155c0 22.6 27.757 40.799 50.739 40.799 22.497 0 40.799-18.303 40.799-40.799 0-22.981-18.199-50.739-40.799-50.739-10.582 0-23.225 6.325-33.819 16.92s-16.92 23.237-16.92 33.819zm50.739-35.739c13.044 0 25.799 20.465 25.799 35.739 0 14.226-11.573 25.799-25.799 25.799-15.275 0-35.739-12.755-35.739-25.799 0-14.362 21.377-35.739 35.739-35.739z"/><path d="m386.711 122.262c-10.582 0-23.225 6.325-33.819 16.92s-16.92 23.237-16.92 33.819c0 22.6 27.758 40.799 50.739 40.799 22.496 0 40.799-18.303 40.799-40.799 0-22.981-18.199-50.739-40.799-50.739zm0 76.538c-15.274 0-35.739-12.755-35.739-25.799 0-14.362 21.377-35.739 35.739-35.739 13.044 0 25.799 20.465 25.799 35.739 0 14.226-11.573 25.799-25.799 25.799z"/><circle cx="294.766" cy="148.648" r="9.94"/><path d="m227.174 347.448c-5.49 0-9.94 4.45-9.94 9.94s4.45 9.94 9.94 9.94 9.94-4.45 9.94-9.94-4.45-9.94-9.94-9.94z"/><path d="m389.196 280.85c0-5.49-4.45-9.94-9.94-9.94s-9.94 4.45-9.94 9.94 4.45 9.94 9.94 9.94 9.94-4.45 9.94-9.94z"/><circle cx="416.034" cy="348.442" r="9.94"/><path d="m241.09 437.902c0 5.49 4.45 9.94 9.94 9.94s9.94-4.45 9.94-9.94-4.45-9.94-9.94-9.94-9.94 4.45-9.94 9.94z"/><path d="m466.728 261.964c0-5.49-4.45-9.94-9.94-9.94s-9.94 4.45-9.94 9.94 4.45 9.94 9.94 9.94 9.94-4.45 9.94-9.94z"/><circle cx="321.604" cy="76.086" r="9.94"/><circle cx="100.936" cy="136.72" r="9.94"/><path d="m139.702 198.348c-5.49 0-9.94 4.45-9.94 9.94s4.45 9.94 9.94 9.94 9.94-4.45 9.94-9.94-4.45-9.94-9.94-9.94z"/><path d="m153.618 392.178c-5.49 0-9.94 4.45-9.94 9.94s4.45 9.94 9.94 9.94 9.94-4.45 9.94-9.94-4.45-9.94-9.94-9.94z"/><path d="m147.874 469.051c-5.384-1.133-9.204-2.46-12.388-4.303-5.957-3.446-10.773-9.39-15.872-15.683-4.072-5.025-8.283-10.222-13.409-14.526-5.154-4.332-11.024-7.597-16.701-10.754-7.062-3.928-13.732-7.638-18.131-12.868-4.384-5.22-6.883-12.426-9.529-20.055-2.13-6.142-4.333-12.492-7.71-18.325-3.334-5.769-7.708-10.802-11.938-15.669-5.327-6.129-10.357-11.918-12.728-18.421-2.301-6.329-2.179-13.927-2.051-21.971.104-6.526.213-13.274-.96-19.982-1.136-6.479-3.5-12.655-5.786-18.628-2.916-7.621-5.671-14.819-5.671-21.866s2.755-14.245 5.671-21.866c2.286-5.973 4.649-12.148 5.786-18.632 1.173-6.704 1.064-13.452.96-19.979-.128-8.044-.25-15.642 2.049-21.965 2.373-6.509 7.403-12.298 12.73-18.427 4.229-4.867 8.603-9.9 11.936-15.667 3.378-5.839 5.58-12.187 7.709-18.325 2.646-7.629 5.146-14.835 9.53-20.055 4.403-5.239 11.075-8.948 18.138-12.875 5.675-3.155 11.542-6.418 16.694-10.747 5.127-4.307 9.338-9.503 13.41-14.528 5.099-6.293 9.915-12.236 15.875-15.685 5.872-3.401 13.398-4.61 21.366-5.891 6.421-1.032 13.061-2.099 19.422-4.412 6.211-2.263 11.898-5.675 17.398-8.974 6.986-4.19 13.585-8.149 20.455-9.355 6.566-1.142 13.982.284 21.836 1.798 6.462 1.246 13.144 2.534 20.034 2.534 6.885 0 13.563-1.286 20.021-2.53 7.856-1.515 15.278-2.943 21.847-1.792 6.877 1.203 13.478 5.161 20.465 9.352 5.497 3.297 11.182 6.706 17.391 8.968 1.094.398 2.233.772 3.386 1.11 3.982 1.166 8.143-1.112 9.308-5.087s-1.112-8.142-5.087-9.308c-.848-.248-1.68-.521-2.473-.81-4.859-1.771-9.692-4.669-14.81-7.737-7.854-4.711-15.976-9.582-25.593-11.264-9.282-1.625-18.428.135-27.271 1.838-6.032 1.162-11.73 2.26-17.184 2.26-5.457 0-11.158-1.099-17.194-2.263-8.838-1.704-17.978-3.467-27.263-1.844-9.615 1.688-17.733 6.558-25.584 11.267-5.119 3.071-9.955 5.972-14.812 7.742-5.017 1.824-10.677 2.733-16.67 3.696-8.964 1.44-18.233 2.93-26.502 7.719-8.355 4.834-14.283 12.149-20.015 19.224-3.794 4.682-7.377 9.104-11.405 12.486-4.05 3.404-9.046 6.182-14.334 9.122-7.94 4.414-16.15 8.979-22.333 16.337-6.165 7.339-9.241 16.209-12.217 24.787-1.986 5.726-3.862 11.132-6.523 15.733-2.614 4.522-6.334 8.804-10.272 13.336-5.987 6.889-12.178 14.013-15.503 23.135-3.246 8.928-3.096 18.286-2.952 27.336.098 6.095.19 11.852-.737 17.15-.887 5.059-2.895 10.305-5.021 15.858-3.275 8.561-6.662 17.411-6.662 27.23s3.387 18.669 6.662 27.228c2.126 5.554 4.133 10.8 5.02 15.854.927 5.303.835 11.06.737 17.154-.145 9.05-.294 18.407 2.954 27.342 3.323 9.116 9.514 16.24 15.5 23.129 3.938 4.532 7.659 8.813 10.275 13.341 2.66 4.595 4.537 10.004 6.522 15.73 2.976 8.578 6.052 17.448 12.219 24.79 6.179 7.346 14.386 11.911 22.323 16.325 5.291 2.943 10.289 5.723 14.343 9.13 4.026 3.381 7.609 7.804 11.403 12.485 5.732 7.074 11.66 14.39 20.014 19.223 4.557 2.638 9.899 4.543 16.812 5.998.521.109 1.04.162 1.551.162 3.472 0 6.589-2.425 7.332-5.958.855-4.053-1.739-8.03-5.793-8.882z"/><path d="m505.338 228.772c-2.126-5.554-4.134-10.8-5.021-15.854-.927-5.302-.835-11.06-.737-17.154.145-9.05.295-18.407-2.953-27.342-3.323-9.116-9.514-16.24-15.501-23.129-3.938-4.532-7.658-8.813-10.275-13.341-2.66-4.596-4.536-10.005-6.522-15.731-2.976-8.577-6.052-17.447-12.219-24.789-6.18-7.346-14.386-11.91-22.322-16.325-5.291-2.942-10.289-5.723-14.344-9.13-4.025-3.381-7.608-7.804-11.402-12.485-5.732-7.074-11.66-14.39-20.009-19.22-1.833-1.062-3.76-1.989-5.889-2.834-3.85-1.524-8.209.358-9.736 4.21-1.525 3.851.358 8.209 4.209 9.735 1.434.567 2.706 1.178 3.897 1.869 5.957 3.446 10.773 9.39 15.873 15.683 4.072 5.025 8.282 10.222 13.408 14.526 5.154 4.332 11.024 7.597 16.701 10.755 7.062 3.928 13.731 7.638 18.131 12.867 4.384 5.22 6.883 12.425 9.529 20.054 2.13 6.142 4.333 12.493 7.711 18.326 3.334 5.769 7.707 10.802 11.937 15.669 5.326 6.129 10.357 11.918 12.728 18.421 2.301 6.329 2.18 13.927 2.051 21.971-.104 6.526-.213 13.274.96 19.982 1.137 6.479 3.5 12.655 5.786 18.629 2.916 7.62 5.671 14.818 5.671 21.865s-2.755 14.245-5.672 21.865c-2.286 5.974-4.649 12.149-5.786 18.633-1.173 6.704-1.064 13.452-.96 19.979.129 8.044.25 15.642-2.049 21.965-2.372 6.509-7.403 12.298-12.729 18.427-4.229 4.867-8.603 9.9-11.936 15.666-3.378 5.84-5.58 12.188-7.71 18.326-2.646 7.629-5.146 14.835-9.529 20.055-4.404 5.239-11.075 8.948-18.138 12.875-5.675 3.155-11.543 6.418-16.694 10.747-5.128 4.307-9.338 9.503-13.41 14.528-5.1 6.293-9.916 12.236-15.877 15.685-5.871 3.401-13.397 4.611-21.365 5.891-6.421 1.032-13.062 2.099-19.422 4.412-6.212 2.263-11.898 5.675-17.398 8.974-6.986 4.19-13.585 8.149-20.454 9.355-6.565 1.146-13.981-.283-21.836-1.798-6.463-1.246-13.145-2.534-20.034-2.534-6.885 0-13.563 1.286-20.021 2.53-7.857 1.514-15.28 2.942-21.848 1.792-6.873-1.201-13.466-5.154-20.448-9.34-3.26-1.954-6.63-3.976-10.114-5.753-3.69-1.883-8.207-.419-10.089 3.271s-.417 8.207 3.272 10.09c3.028 1.545 6.035 3.348 9.219 5.257 7.848 4.705 15.963 9.57 25.574 11.25 9.285 1.626 18.43-.134 27.272-1.838 6.033-1.162 11.73-2.26 17.184-2.26 5.457 0 11.158 1.099 17.194 2.263 6.37 1.228 12.896 2.486 19.521 2.486 2.566 0 5.149-.189 7.742-.643 9.614-1.688 17.732-6.558 25.583-11.267 5.12-3.071 9.955-5.972 14.813-7.742 5.017-1.824 10.678-2.733 16.67-3.696 8.964-1.44 18.233-2.93 26.502-7.719 8.355-4.834 14.283-12.149 20.016-19.224 3.794-4.682 7.377-9.104 11.404-12.487 4.051-3.403 9.046-6.181 14.335-9.121 7.939-4.414 16.149-8.979 22.333-16.337 6.164-7.339 9.241-16.209 12.217-24.787 1.986-5.725 3.862-11.132 6.523-15.733 2.614-4.522 6.334-8.804 10.272-13.336 5.987-6.889 12.178-14.013 15.503-23.135 3.246-8.929 3.096-18.286 2.951-27.336-.098-6.095-.189-11.853.737-17.15.887-5.059 2.895-10.305 5.021-15.858 3.274-8.559 6.661-17.409 6.661-27.228s-3.387-18.669-6.662-27.228z"/></g></g></svg>