<svg id="Capa_1" enable-background="new 0 0 512 512" height="512" viewBox="0 0 512 512" width="512" xmlns="http://www.w3.org/2000/svg"><g><g><g clip-rule="evenodd" fill-rule="evenodd"><path d="m102.11 147.239 11.324-38.501c5.99-20.384 25.384-33.179 45.753-31.603l38.01 1.071 31.813-24.51c16.454-12.706 39.033-11.991 54.572.454l31.223 24.057 40.163-1.132c20.469-.561 38.062 12.906 43.565 31.674l11.359 38.493 33.115 22.664c16.918 11.546 23.29 32.769 16.774 51.21l-13.518 37.963 13.527 37.958c6.982 19.803-.974 41.25-17.983 52.036l-31.915 21.844-11.324 38.501c-5.99 20.384-25.382 33.177-45.751 31.603l-38.012-1.07-31.813 24.51c-16.454 12.706-39.033 11.991-54.572-.454l-31.223-24.057-40.163 1.13c-20.469.561-38.062-12.905-43.564-31.674l-11.359-38.491-33.117-22.665c-16.918-11.546-23.29-32.769-16.774-51.21l13.518-37.962-13.527-37.96c-6.983-19.803.974-41.249 17.983-52.036zm153.89 357.261c137.243 0 248.5-111.257 248.5-248.5s-111.258-248.5-248.5-248.5-248.5 111.258-248.5 248.5 111.257 248.5 248.5 248.5z" fill="#fcc062"/><path d="m189.157 256c0-36.916 29.926-66.843 66.843-66.843s66.843 29.926 66.843 66.843c0 36.916-29.926 66.843-66.843 66.843s-66.843-29.927-66.843-66.843zm252.648 93.072c17.009-10.786 24.965-32.233 17.983-52.036l-13.527-37.958 13.518-37.963c6.516-18.442.144-39.664-16.774-51.21l-33.115-22.664-11.359-38.493c-5.503-18.768-23.096-32.234-43.565-31.674l-40.163 1.132-31.223-24.056c-15.539-12.445-38.117-13.16-54.572-.454l-31.813 24.51-38.01-1.071c-20.369-1.575-39.763 11.22-45.753 31.603l-11.324 38.501-31.915 21.843c-17.009 10.786-24.965 32.233-17.983 52.036l13.527 37.96-13.517 37.962c-6.516 18.442-.144 39.664 16.774 51.21l33.115 22.665 11.359 38.491c5.503 18.768 23.095 32.234 43.564 31.674l40.163-1.13 31.223 24.057c15.539 12.445 38.117 13.16 54.572.454l31.813-24.51 38.012 1.07c20.369 1.574 39.761-11.22 45.751-31.603l11.324-38.501z" fill="#ff95bd"/><path d="m189.157 256c0-36.916 29.926-66.843 66.843-66.843s66.843 29.926 66.843 66.843c0 36.916-29.926 66.843-66.843 66.843s-66.843-29.927-66.843-66.843zm244.615 80.405c11.403-7.231 16.431-21.581 11.887-34.333l-15.32-42.991 15.311-42.997c4.419-12.41-.261-26.372-11.115-33.8l-37.52-25.678-12.869-43.612c-3.734-12.653-15.531-21.298-28.756-20.925l-45.507 1.282-35.569-27.405c-10.571-8.451-25.416-8.638-36.15-.367l-36.047 27.772-43.721-1.232c-13.891-1.074-26.621 7.417-30.572 20.853l-12.832 43.628-36.542 25.01c-11.477 7.285-16.705 21.574-12.108 34.474l15.32 42.993-15.311 42.995c-4.419 12.411.262 26.372 11.116 33.801l37.519 25.679 12.869 43.609c3.734 12.654 15.531 21.298 28.756 20.925l45.506-1.28 35.569 27.405c10.571 8.451 25.416 8.638 36.151.367l36.047-27.772 43.722 1.23c13.89 1.075 26.62-7.418 30.571-20.852l12.832-43.628zm-259.615-80.405c0 45.195 36.648 81.842 81.842 81.842s81.843-36.648 81.843-81.842c0-45.195-36.648-81.842-81.843-81.842s-81.842 36.647-81.842 81.842zm267.648 93.072c17.009-10.786 24.965-32.233 17.983-52.036l-13.527-37.958 13.518-37.963c6.516-18.442.144-39.664-16.774-51.21l-33.115-22.664-11.359-38.493c-5.503-18.768-23.096-32.234-43.565-31.674l-40.163 1.132-31.223-24.056c-15.539-12.445-38.117-13.16-54.572-.454l-31.813 24.51-38.01-1.071c-20.369-1.575-39.763 11.22-45.753 31.603l-11.324 38.501-31.915 21.843c-17.009 10.786-24.965 32.233-17.983 52.036l13.527 37.96-13.517 37.962c-6.516 18.442-.144 39.664 16.774 51.21l33.115 22.665 11.359 38.491c5.503 18.768 23.095 32.234 43.564 31.674l40.163-1.13 31.223 24.057c15.539 12.445 38.117 13.16 54.572.454l31.813-24.51 38.012 1.07c20.369 1.574 39.761-11.22 45.751-31.603l11.324-38.501z" fill="#ff7bac"/><path d="m65.738 259.078-13.527-37.96c-6.983-19.803.974-41.249 17.983-52.036l31.915-21.843 11.324-38.501c5.99-20.384 25.384-33.179 45.753-31.603l38.01 1.071 31.813-24.51c16.454-12.706 39.033-11.991 54.572.454l31.223 24.057 40.163-1.132c20.469-.561 38.062 12.906 43.565 31.674l11.359 38.493 33.115 22.664c16.918 11.546 23.29 32.769 16.774 51.21l-13.518 37.963 13.527 37.958c6.982 19.803-.974 41.25-17.983 52.036l-31.915 21.844-11.324 38.501c-5.99 20.384-25.382 33.177-45.751 31.603l-38.012-1.07-31.813 24.51c-16.454 12.706-39.033 11.991-54.572-.454l-31.223-24.057-40.163 1.13c-20.469.561-38.062-12.905-43.564-31.674l-11.359-38.491-33.116-22.665c-16.918-11.546-23.29-32.769-16.774-51.21zm190.262 245.422c-7.441 0-148.097-7.474-207.938-155.349 3.522 4.334 7.694 8.215 12.46 11.478l28.711 19.651 9.849 33.372c7.573 25.662 31.563 43.177 58.373 42.422l34.821-.98 26.886 20.715c21.257 16.936 51.414 17.153 72.985.534l27.578-21.248 32.329.91c27.577 1.945 53.086-15.775 60.904-42.355l9.815-33.373 27.304-18.687c23.013-14.749 33.045-43.759 23.842-69.587l-11.733-32.925 11.726-32.93c8.965-25.177-.372-53.522-22.433-68.62l-28.711-19.65-9.848-33.373c-7.573-25.662-31.563-43.178-58.374-42.422l-34.82.981-26.885-20.715c-21.257-16.936-51.414-17.153-72.985-.533l-27.578 21.248-32.327-.911c-27.577-1.947-53.088 15.775-60.906 42.355l-9.816 33.373-27.304 18.687c-7.798 4.997-14.102 11.633-18.676 19.227 58.889-172.764 212.751-168.295 212.751-168.295-137.243 0-248.5 111.258-248.5 248.5s111.257 248.5 248.5 248.5zm-221-198.71c.461-4.633 1.478-9.258 3.089-13.782l11.726-32.928-11.733-32.927c-2.159-6.058-3.259-12.291-3.382-18.474-3.08 15.631-4.7 31.787-4.7 48.321 0 17.054 1.725 33.704 5 49.79z" fill="#fbb03b"/></g><g><path d="m286 360.343h-15v-15h15zm-30 0c-37.131 0-71.761-19.989-90.375-52.167l12.983-7.511c15.942 27.558 45.597 44.677 77.392 44.677zm113.967-238.268h-15v-15h15z" fill="#fff"/></g></g><g><path d="m442.389 80.534-10.92 10.283c42.259 44.873 65.531 103.536 65.531 165.183 0 132.888-108.112 241-241 241-61.647 0-120.311-23.272-165.183-65.531l-10.284 10.92c47.667 44.889 109.982 69.611 175.467 69.611 68.38 0 132.667-26.629 181.019-74.981s74.981-112.639 74.981-181.019c0-65.485-24.722-127.8-69.611-175.466z"/><path d="m256 15c61.649 0 120.313 23.272 165.183 65.531l10.284-10.919c-47.665-44.89-109.98-69.612-175.467-69.612-68.38 0-132.667 26.629-181.019 74.981s-74.981 112.639-74.981 181.019c0 65.487 24.722 127.802 69.611 175.466l10.919-10.284c-42.258-44.869-65.53-103.533-65.53-165.182 0-132.888 108.112-241 241-241z"/><path d="m256 330.343c40.993 0 74.343-33.35 74.343-74.343 0-16.79-5.761-33.251-16.221-46.351l-11.722 9.359c8.467 10.604 12.943 23.396 12.943 36.992 0 32.722-26.621 59.343-59.343 59.343s-59.343-26.621-59.343-59.343 26.621-59.343 59.343-59.343c13.597 0 26.388 4.476 36.991 12.942l9.36-11.721c-13.099-10.46-29.561-16.222-46.352-16.222-40.993 0-74.343 33.35-74.343 74.343s33.351 74.344 74.344 74.344z"/><path d="m447.241 163.716-30.913-21.157-10.6-35.921c-6.586-22.462-27.542-37.684-50.973-37.061l-37.492 1.057-29.051-22.383c-18.649-14.896-44.869-15.101-63.781-.496l-29.696 22.879-35.164-.992c-20.835-1.53-40.981 10.026-50.162 28.808l13.476 6.587c6.533-13.364 20.886-21.57 35.722-20.426l41.049 1.167 33.936-26.147c13.439-10.378 32.067-10.227 45.299.372l33.451 25.775 42.829-1.208c16.62-.459 31.491 10.354 36.166 26.299l12.114 41.052 35.325 24.176c13.735 9.374 19.463 26.857 13.937 42.5l-14.413 40.483 14.415 40.451c5.725 16.236-.413 34.004-14.927 43.208l-34.339 23.498-9.961 33.868 14.391 4.232 8.453-28.741 29.604-20.262c20.367-12.99 28.973-37.968 20.917-60.814l-12.63-35.441 12.628-35.464c7.796-22.068-.271-46.701-19.61-59.899z"/><path d="m64.759 354.439 30.913 21.158 10.6 35.919c6.586 22.462 27.543 37.673 50.972 37.06l37.492-1.055 29.055 22.386c9.436 7.535 20.806 11.309 32.19 11.309 11.116 0 22.245-3.601 31.588-10.815l29.696-22.879 35.165.989c20.833 1.531 40.981-10.028 50.162-28.808l-13.476-6.587c-6.532 13.363-20.881 21.578-35.721 20.426l-41.05-1.165-33.936 26.146c-13.44 10.378-32.068 10.226-45.299-.372l-33.451-25.775-42.83 1.205c-16.653.461-31.491-10.354-36.166-26.299l-12.114-41.051-35.325-24.178c-13.735-9.374-19.463-26.857-13.937-42.5l14.413-40.475-14.415-40.453c-5.726-16.236.413-34.004 14.926-43.208l34.339-23.498 9.961-33.867-14.391-4.232-8.453 28.74-29.606 20.264c-20.368 12.99-28.971 37.966-20.915 60.813l12.63 35.443-12.628 35.462c-7.795 22.066.271 46.699 19.611 59.897z"/><path d="m278.06 375.465h45v15h-45z" transform="matrix(.707 -.707 .707 .707 -182.765 324.696)"/><path d="m369.562 293.714h15v45h-15z" transform="matrix(.707 -.707 .707 .707 -113.158 359.24)"/><path d="m348.562 220.214h45v15h-45z" transform="matrix(.707 -.707 .707 .707 -52.337 329.076)"/><path d="m297.562 143.714h15v45h-15z" transform="matrix(.707 -.707 .707 .707 -28.18 264.394)"/><path d="m195.562 124.214h45v15h-45z" transform="matrix(.707 -.707 .707 .707 -29.267 192.771)"/><path d="m146.811 168.464h15v45h-15z" transform="matrix(.707 -.707 .707 .707 -89.835 165.047)"/><path d="m88.311 285.464h45.001v15h-45.001z" transform="matrix(.707 -.707 .707 .707 -174.701 164.162)"/><path d="m172.31 357.465h15v45.001h-15z" transform="matrix(.707 -.707 .707 .707 -216.011 238.434)"/></g></g></svg>