<svg id="Capa_1" enable-background="new 0 0 509.914 509.914" height="512" viewBox="0 0 509.914 509.914" width="512" xmlns="http://www.w3.org/2000/svg"><g><g><g><path d="m350.009 116.764h-35.854l25.78-93.894c2.492-9.078 10.745-15.37 20.159-15.37 14.527 0 24.625 14.451 19.631 28.092z" fill="#8face0"/></g></g><g><g><path d="m417.589 159.248-21.939 292.844c-.38 6.353-5.643 11.311-12.008 11.311h-257.37c-6.365 0-11.628-4.958-12.008-11.311l-21.827-291.357" fill="#e4a4ad"/></g></g><g><g><path d="m387.578 159.385-21.928 292.707c-.38 6.353-5.643 11.311-12.008 11.311h30c6.365 0 11.628-4.958 12.008-11.311l21.938-292.844z" fill="#dc8995"/></g></g><g><g><path d="m404.52 331.698 4.388-64.509h-307.902l4.388 64.509z" fill="#d5717f"/></g></g><g><g><path d="m378.908 267.189-4.388 64.509h30l4.388-64.509z" fill="#cd5668"/></g></g><g><g><path d="m344.255 502.414h-178.596c-10.731 0-19.43-8.699-19.43-19.43v-19.58h217.457v19.58c-.001 10.731-8.7 19.43-19.431 19.43z" fill="#ebe1dc"/></g></g><g><g><path d="m424.642 155.895h-339.37c-6.595 0-11.941-5.346-11.941-11.941v-15.249c0-6.595 5.346-11.941 11.941-11.941h339.37c6.595 0 11.941 5.346 11.941 11.941v15.249c0 6.594-5.346 11.941-11.941 11.941z" fill="#ebe1dc"/></g></g><g><g><path d="m424.642 116.764h-30c6.595 0 11.941 5.346 11.941 11.941v15.249c0 6.595-5.346 11.941-11.941 11.941h30c6.595 0 11.941-5.346 11.941-11.941v-15.249c0-6.595-5.346-11.941-11.941-11.941z" fill="#dcd2cd"/></g></g><g><g><path d="m333.685 463.403v19.581c0 10.731-8.699 19.43-19.43 19.43h30c10.731 0 19.43-8.699 19.43-19.43v-19.581z" fill="#dcd2cd"/></g></g><g><g><circle cx="254.957" cy="301.716" fill="#ebe1dc" r="100.197"/></g></g><g><g><path d="m254.957 201.519c-5.098 0-10.107.384-15 1.118 48.221 7.24 85.197 48.84 85.197 99.079s-36.976 91.839-85.197 99.079c4.893.735 9.902 1.118 15 1.118 55.337 0 100.197-44.86 100.197-100.197s-44.86-100.197-100.197-100.197z" fill="#dcd2cd"/></g></g><g><g><ellipse cx="273.366" cy="283.135" fill="#b8c9ea" rx="35.107" ry="35.107" transform="matrix(.926 -.378 .378 .926 -86.681 124.198)"/></g></g><g><g><circle cx="224.844" cy="305.082" fill="#b8c9ea" r="35.107"/></g></g><g><g><ellipse cx="270.143" cy="327.722" fill="#b8c9ea" rx="35.107" ry="35.107" transform="matrix(.807 -.59 .59 .807 -141.353 222.603)"/></g></g><g><path d="m424.642 109.264h-63.901l26.026-71.093c3.187-8.705 1.92-18.438-3.391-26.036-5.309-7.599-14.013-12.135-23.283-12.135-12.751 0-24.015 8.588-27.392 20.885l-24.12 87.849c-.048.177-.082.354-.117.531h-87.548c-4.142 0-7.5 3.358-7.5 7.5s3.358 7.5 7.5 7.5h203.726c2.449 0 4.441 1.992 4.441 4.441v15.249c0 2.449-1.992 4.441-4.441 4.441h-339.37c-2.449 0-4.441-1.992-4.441-4.441v-15.249c0-2.449 1.992-4.441 4.441-4.441h105.644c4.142 0 7.5-3.358 7.5-7.5s-3.358-7.5-7.5-7.5h-105.644c-10.72 0-19.441 8.721-19.441 19.441v15.249c0 10.667 8.637 19.347 19.284 19.433l15.633 208.679c.309 4.13 3.9 7.226 8.04 6.918 4.13-.31 7.228-3.909 6.918-8.04l-2.404-32.088h40.56c15.162 41.139 54.757 70.557 101.095 70.557s85.933-29.417 101.095-70.557h40.56l-8.441 112.675c-.003.037-.005.075-.008.112-.143 2.388-2.129 4.259-4.521 4.259h-257.37c-2.393 0-4.378-1.871-4.521-4.259-.002-.038-.005-.075-.008-.113l-3.759-50.178c-.31-4.131-3.903-7.231-8.04-6.919-4.13.31-7.228 3.909-6.919 8.039l3.755 50.124c.645 10.27 9.194 18.306 19.491 18.306h12.457v12.08c0 14.85 12.081 26.931 26.931 26.931h178.596c14.85 0 26.931-12.081 26.931-26.931v-12.08h12.457c10.295 0 18.844-8.033 19.491-18.301l21.667-289.216c10.647-.086 19.284-8.766 19.284-19.433v-15.249c-.002-10.719-8.723-19.44-19.443-19.44zm-77.475-84.408c1.593-5.803 6.909-9.856 12.927-9.856 4.44 0 8.445 2.087 10.988 5.726 2.544 3.64 3.127 8.118 1.6 12.288l-27.914 76.25h-20.776zm9.018 458.127c0 6.579-5.352 11.931-11.931 11.931h-178.595c-6.579 0-11.931-5.352-11.931-11.931v-12.08h202.457zm53.572-319.588-7.214 96.294h-47.389c-.343 0-.678.031-1.008.076-16.389-38.602-54.679-65.745-99.189-65.745s-82.8 27.142-99.189 65.745c-.331-.045-.665-.076-1.008-.076h-47.389l-7.214-96.294zm-297.579 160.462-3.684-49.169h42.2c-2.241 8.64-3.436 17.697-3.436 27.028 0 7.587.793 14.992 2.293 22.141zm142.779 70.557c-51.113 0-92.697-41.584-92.697-92.697s41.584-92.697 92.697-92.697 92.697 41.583 92.697 92.697-41.584 92.697-92.697 92.697zm105.404-70.557c1.5-7.148 2.293-14.553 2.293-22.141 0-9.331-1.195-18.388-3.436-27.028h42.201l-3.684 49.169z"/><path d="m313.893 269.987c-7.251-22.347-31.332-34.628-53.675-27.378-9.254 3.002-17.267 9.141-22.561 17.284-.834 1.282-1.592 2.617-2.285 3.985-7.6-1.967-15.79-1.88-23.675.678-22.347 7.25-34.628 31.329-27.378 53.675 5.776 17.806 22.578 29.454 40.631 29.454 2.394 0 4.811-.207 7.227-.63 7.319 14.395 22.182 23.278 37.997 23.278 4.347 0 8.767-.671 13.119-2.083 22.347-7.25 34.629-31.329 27.378-53.675-.743-2.29-1.671-4.467-2.747-6.535 7.954-11.008 10.212-24.976 5.969-38.053zm-49.046-13.111c14.479-4.697 30.081 3.261 34.779 17.74 2.287 7.05 1.655 14.5-1.588 20.915-9.482-8.189-22.377-12.029-35.23-9.773-3.273-6.426-8.064-11.74-13.771-15.656.372-.694.768-1.375 1.196-2.034 3.476-5.348 8.53-9.218 14.614-11.192zm-37.042 75.65c-12.753 1.371-25.169-6.437-29.22-18.925-4.697-14.479 3.26-30.081 17.74-34.779 12.317-3.995 25.784 1.3 32.253 12.16-14.454 8.483-22.672 24.853-20.773 41.544zm50.858 21.455c-14.477 4.698-30.081-3.26-34.779-17.74-4.697-14.479 3.261-30.081 17.74-34.779 14.478-4.699 30.081 3.261 34.779 17.74 4.697 14.48-3.261 30.082-17.74 34.779z"/><path d="m217.043 293.726c-4.035-.927-8.055 1.603-8.986 5.635 0 0-.161.696-.346 1.767-.706 4.082 2.029 7.963 6.11 8.67.433.075.863.111 1.289.111 3.581 0 6.749-2.574 7.381-6.222.095-.55.177-.93.194-1.007.913-4.032-1.612-8.031-5.642-8.954z"/><path d="m284.001 327.617c-3.387-2.375-8.066-1.548-10.446 1.837 0 0-.412.587-.988 1.512-2.189 3.517-1.113 8.142 2.404 10.331 1.233.768 2.603 1.134 3.956 1.134 2.505 0 4.954-1.254 6.374-3.538.295-.475.514-.795.558-.858 2.361-3.391 1.528-8.045-1.858-10.418z"/></g></g></svg>